<svg 
 xmlns="http://www.w3.org/2000/svg"
 xmlns:xlink="http://www.w3.org/1999/xlink"
 width="33px" height="38px">
<path fill-rule="evenodd"  fill="rgb(255, 255, 255)"
 d="M29.392,13.518 C28.857,13.186 28.154,13.348 27.820,13.882 C27.487,14.414 27.650,15.116 28.185,15.448 C29.429,16.221 30.172,17.556 30.172,19.017 C30.172,20.479 29.429,21.813 28.185,22.586 L9.473,34.216 C8.153,35.036 6.553,35.077 5.193,34.325 C3.833,33.572 3.021,32.197 3.021,30.647 L3.021,7.387 C3.021,5.837 3.833,4.462 5.193,3.710 C6.553,2.957 8.153,2.998 9.473,3.818 L20.366,10.588 C20.901,10.920 21.604,10.758 21.937,10.225 C22.271,9.692 22.108,8.990 21.573,8.658 L10.680,1.888 C8.647,0.625 6.182,0.562 4.086,1.721 C1.990,2.880 0.739,4.998 0.739,7.387 L0.739,30.647 C0.739,33.036 1.990,35.154 4.086,36.313 C5.084,36.865 6.166,37.140 7.245,37.140 C8.432,37.140 9.615,36.808 10.680,36.146 L29.392,24.516 C31.309,23.324 32.453,21.269 32.453,19.017 C32.453,16.765 31.309,14.710 29.392,13.518 Z"/>
</svg>