<svg 
 xmlns="http://www.w3.org/2000/svg"
 xmlns:xlink="http://www.w3.org/1999/xlink"
 width="45px" height="25px">
<path fill-rule="evenodd"  fill="rgb(255, 255, 255)"
 d="M44.759,22.557 C44.704,22.443 44.654,22.348 44.606,22.273 C43.826,20.904 42.334,19.225 40.132,17.234 L40.085,17.188 L40.062,17.166 L40.038,17.143 L40.015,17.143 C39.015,16.216 38.382,15.593 38.117,15.273 C37.632,14.665 37.524,14.050 37.789,13.426 C37.976,12.955 38.680,11.960 39.897,10.440 C40.538,9.634 41.045,8.988 41.420,8.502 C44.122,5.007 45.294,2.772 44.934,1.800 L44.794,1.572 C44.701,1.436 44.459,1.310 44.069,1.196 C43.678,1.082 43.178,1.063 42.569,1.139 L35.822,1.185 C35.713,1.147 35.557,1.150 35.353,1.196 C35.150,1.242 35.049,1.265 35.049,1.265 L34.931,1.322 L34.838,1.390 C34.760,1.436 34.674,1.515 34.580,1.629 C34.487,1.743 34.409,1.877 34.347,2.028 C33.612,3.867 32.777,5.577 31.840,7.158 C31.262,8.100 30.731,8.917 30.247,9.609 C29.762,10.300 29.356,10.809 29.029,11.136 C28.700,11.463 28.404,11.725 28.138,11.923 C27.873,12.120 27.670,12.204 27.529,12.173 C27.389,12.143 27.256,12.112 27.131,12.082 C26.912,11.945 26.736,11.759 26.604,11.524 C26.471,11.288 26.381,10.991 26.334,10.634 C26.288,10.277 26.260,9.969 26.252,9.711 C26.245,9.452 26.249,9.088 26.264,8.616 C26.280,8.145 26.288,7.826 26.288,7.659 C26.288,7.082 26.299,6.455 26.323,5.778 C26.346,5.102 26.365,4.566 26.381,4.171 C26.397,3.776 26.405,3.358 26.405,2.917 C26.405,2.476 26.377,2.131 26.323,1.880 C26.269,1.629 26.186,1.386 26.077,1.150 C25.968,0.915 25.807,0.732 25.597,0.603 C25.386,0.474 25.124,0.371 24.812,0.295 C23.984,0.113 22.930,0.014 21.649,-0.001 C18.745,-0.031 16.878,0.151 16.050,0.546 C15.722,0.713 15.425,0.941 15.160,1.230 C14.879,1.564 14.840,1.747 15.043,1.777 C15.980,1.913 16.643,2.240 17.034,2.757 L17.175,3.031 C17.284,3.229 17.393,3.578 17.503,4.080 C17.612,4.581 17.682,5.136 17.713,5.744 C17.791,6.853 17.791,7.803 17.713,8.594 C17.635,9.384 17.561,10.000 17.491,10.440 C17.420,10.881 17.315,11.238 17.175,11.512 C17.034,11.785 16.940,11.952 16.893,12.013 C16.846,12.074 16.807,12.112 16.776,12.127 C16.573,12.203 16.362,12.241 16.144,12.241 C15.925,12.241 15.660,12.135 15.347,11.922 C15.035,11.709 14.711,11.417 14.375,11.044 C14.039,10.672 13.660,10.151 13.239,9.482 C12.817,8.814 12.380,8.023 11.927,7.112 L11.552,6.450 C11.318,6.025 10.998,5.405 10.592,4.592 C10.186,3.779 9.826,2.993 9.514,2.233 C9.389,1.913 9.202,1.670 8.952,1.503 L8.835,1.435 C8.757,1.374 8.632,1.310 8.460,1.241 C8.288,1.172 8.109,1.123 7.921,1.093 L1.502,1.138 C0.846,1.138 0.401,1.283 0.167,1.572 L0.073,1.708 C0.026,1.784 0.003,1.906 0.003,2.073 C0.003,2.240 0.050,2.445 0.143,2.688 C1.080,4.832 2.099,6.898 3.200,8.890 C4.301,10.881 5.258,12.484 6.070,13.699 C6.882,14.915 7.710,16.063 8.553,17.142 C9.397,18.221 9.955,18.913 10.228,19.217 C10.502,19.521 10.716,19.749 10.873,19.900 L11.458,20.447 C11.833,20.812 12.384,21.250 13.110,21.758 C13.836,22.268 14.640,22.769 15.523,23.264 C16.405,23.757 17.432,24.160 18.604,24.471 C19.775,24.783 20.915,24.908 22.024,24.848 L24.718,24.848 C25.265,24.802 25.678,24.635 25.960,24.346 L26.053,24.232 C26.116,24.141 26.174,24.000 26.229,23.811 C26.283,23.621 26.311,23.411 26.311,23.184 C26.295,22.531 26.346,21.942 26.463,21.417 C26.579,20.893 26.712,20.498 26.861,20.232 C27.010,19.966 27.178,19.742 27.365,19.560 C27.552,19.377 27.685,19.267 27.764,19.229 C27.841,19.190 27.904,19.165 27.950,19.149 C28.325,19.028 28.766,19.145 29.274,19.503 C29.782,19.860 30.258,20.301 30.704,20.825 C31.149,21.350 31.684,21.938 32.308,22.592 C32.933,23.245 33.480,23.731 33.948,24.051 L34.416,24.324 C34.729,24.507 35.135,24.674 35.635,24.826 C36.134,24.978 36.571,25.016 36.947,24.940 L42.944,24.849 C43.537,24.849 43.998,24.753 44.326,24.564 C44.654,24.374 44.849,24.165 44.912,23.937 C44.974,23.709 44.978,23.450 44.923,23.161 C44.868,22.873 44.813,22.672 44.759,22.557 Z"/>
</svg>